<?xml version="1.0" encoding="UTF-8"?>
<svg version="1.1" xmlns="http://www.w3.org/2000/svg" width="180" height="180">
<path d="M0 0 C2.8391435 1.56832927 5.59225238 3.24938473 8.359375 4.94140625 C10.74898451 6.2264612 13.14302149 7.49636214 15.546875 8.75390625 C21.04076529 11.66981243 26.49480941 14.65298061 31.921875 17.69140625 C32.57631592 18.05596924 33.23075684 18.42053223 33.9050293 18.79614258 C35.73460706 19.8260311 37.54823811 20.87949612 39.359375 21.94140625 C40.48085937 22.58722656 41.60234375 23.23304687 42.7578125 23.8984375 C45.359375 25.94140625 45.359375 25.94140625 46.26953125 28.34375 C46.49343159 32.06968133 46.62466408 35.10764056 45.484375 38.69140625 C39.99234387 44.50649804 32.5406652 48.04130685 25.546875 51.7421875 C23.44669068 52.76071472 23.44669068 52.76071472 22.359375 53.94140625 C12.16175997 55.42215583 5.67808974 53.98569128 -2.62744141 47.96728516 C-4.58414216 46.53270086 -4.58414216 46.53270086 -7.640625 44.94140625 C-10.34934119 45.43426525 -10.34934119 45.43426525 -12.640625 46.94140625 C-13.37925781 47.19277344 -14.11789063 47.44414063 -14.87890625 47.703125 C-17.46519874 48.85745894 -18.87193601 49.69504213 -20.640625 51.94140625 C-21.35071571 57.02587256 -21.10239326 61.84271502 -20.640625 66.94140625 C-14.23653204 72.09528595 -14.23653204 72.09528595 -6.640625 74.94140625 C-0.93752053 73.89145683 5.28712487 70.01365638 9.359375 65.94140625 C19.96495116 64.27677698 26.96689199 67.5060523 35.67041016 72.93359375 C37.52800125 74.08079114 37.52800125 74.08079114 40.30859375 75.31640625 C42.97295573 76.65486125 44.57470744 77.54296413 46.359375 79.94140625 C47.09537408 84.69873366 46.88880064 89.17003933 46.359375 93.94140625 C45.82795898 94.24208008 45.29654297 94.54275391 44.74902344 94.85253906 C42.20099555 96.29623966 39.65488527 97.74327103 37.109375 99.19140625 C35.69845581 99.99372681 35.69845581 99.99372681 34.2590332 100.81225586 C29.40164378 103.58715453 24.57233297 106.397177 19.79296875 109.3046875 C18.91092773 109.84125977 18.02888672 110.37783203 17.12011719 110.93066406 C15.44647658 111.95390316 13.77634035 112.98290394 12.11035156 114.01855469 C4.97829579 118.38018444 -2.05400791 122.12927818 -10.640625 120.94140625 C-17.42391322 119.07015433 -23.23901298 115.40972221 -29.2734375 111.8828125 C-32.998298 109.73518412 -36.76618238 107.80113871 -40.640625 105.94140625 C-40.640625 105.28140625 -40.640625 104.62140625 -40.640625 103.94140625 C-41.34058594 103.84472656 -42.04054688 103.74804688 -42.76171875 103.6484375 C-46.16651394 102.81225306 -48.68649171 101.40990214 -51.703125 99.62890625 C-52.72535156 99.03464844 -53.74757813 98.44039063 -54.80078125 97.828125 C-61.25113035 93.54267986 -61.25113035 93.54267986 -62.23364258 89.50341797 C-62.79405796 84.59852272 -62.82335887 79.73810983 -62.84375 74.8046875 C-62.84945007 73.72946335 -62.85515015 72.6542392 -62.86102295 71.5464325 C-62.87044927 69.27453589 -62.87699749 67.00262577 -62.88085938 64.73071289 C-62.89054295 61.28311843 -62.92158063 57.83612608 -62.953125 54.38867188 C-62.95965821 52.17318059 -62.96490743 49.95768508 -62.96875 47.7421875 C-62.9810968 46.724095 -62.9934436 45.7060025 -63.00616455 44.65705872 C-62.98353362 37.26065642 -62.67715024 28.45238856 -57.640625 22.62890625 C-56.650625 22.07203125 -55.660625 21.51515625 -54.640625 20.94140625 C-53.53074219 20.30912109 -53.53074219 20.30912109 -52.3984375 19.6640625 C-49.50200187 18.0439494 -46.57629413 16.48930452 -43.640625 14.94140625 C-41.16016081 13.6313451 -38.68110663 12.31865701 -36.203125 11.00390625 C-35.25445557 10.50153442 -35.25445557 10.50153442 -34.28662109 9.98901367 C-29.11207792 7.2322152 -24.05992272 4.30489218 -19.03125 1.2890625 C-13.19644962 -2.0001632 -6.24272802 -2.50263209 0 0 Z " fill="#010102" transform="translate(96.640625,30.05859375)"/>
<path d="M0 0 C3.51553733 1.40621493 6.24282924 2.62943635 9.390625 4.56640625 C10.57785156 5.2944043 10.57785156 5.2944043 11.7890625 6.03710938 C12.60117187 6.54048828 13.41328125 7.04386719 14.25 7.5625 C15.07757813 8.06974609 15.90515625 8.57699219 16.7578125 9.09960938 C22.84948028 12.84948028 22.84948028 12.84948028 24 14 C23.91341551 15.571914 23.77422077 17.14098241 23.61328125 18.70703125 C22.64608449 29.65422177 22.64608449 29.65422177 26.92529297 39.27880859 C32.13138113 43.48684386 38.48083876 47.29888553 45 49 C49.31653343 48.51015208 52.24274794 46.87894141 55.9375 44.625 C57.95074454 43.4040646 59.97161996 42.19562169 62 41 C62.99128906 40.40960938 63.98257813 39.81921875 65.00390625 39.2109375 C68.66807692 37.72998195 70.2369058 37.85908736 74 39 C76.44374682 40.22599672 78.73290702 41.46664368 81.0625 42.875 C81.9606543 43.40287109 81.9606543 43.40287109 82.87695312 43.94140625 C84.59045988 44.95111779 86.29543415 45.97526685 88 47 C88.96808594 47.58007812 89.93617188 48.16015625 90.93359375 48.7578125 C91.61550781 49.16773438 92.29742187 49.57765625 93 50 C90.08487413 53.15633014 87.16864838 55.25852968 83.4375 57.375 C82.36757812 57.98472656 81.29765625 58.59445313 80.1953125 59.22265625 C76.52584428 61.26374188 72.8374211 63.26567621 69.1328125 65.2421875 C66.6220782 66.65095363 64.18415901 68.11128468 61.7421875 69.6328125 C60.99090576 70.09453857 60.23962402 70.55626465 59.46557617 71.03198242 C57.97265767 71.95307682 56.48800251 72.8877323 55.01293945 73.8371582 C51.79220021 75.8110386 49.76383832 76.98832349 45.93359375 77.046875 C42.27405201 75.74094 39.12517698 73.90114387 35.875 71.8125 C31.3523637 69.00003918 26.85961069 66.3296502 22.0625 64 C14.55930243 60.28707749 7.29648597 56.10427336 0 52 C0 34.84 0 17.68 0 0 Z " fill="#9B9B9B" transform="translate(43,66)"/>
<path d="M0 0 C0.9077417 0.51763916 1.8154834 1.03527832 2.75073242 1.56860352 C3.77368408 2.14642578 4.79663574 2.72424805 5.85058594 3.31958008 C6.92493896 3.93929687 7.99929199 4.55901367 9.10620117 5.19750977 C10.20955811 5.82625 11.31291504 6.45499023 12.44970703 7.1027832 C14.67957871 8.37644002 16.90690575 9.65456283 19.1315918 10.93725586 C21.98685833 12.58313448 24.84980822 14.21454789 27.71557617 15.84204102 C29.26312305 16.73019425 30.81004809 17.61943234 32.35620117 18.51000977 C33.42608276 19.11800415 33.42608276 19.11800415 34.51757812 19.73828125 C36.14427547 20.68853832 37.72552641 21.71599796 39.29370117 22.76000977 C39.29370117 23.42000977 39.29370117 24.08000977 39.29370117 24.76000977 C37.82836914 25.85742187 37.82836914 25.85742187 35.78588867 27.03735352 C35.0459668 27.46854492 34.30604492 27.89973633 33.54370117 28.34399414 C32.75995117 28.7906543 31.97620117 29.23731445 31.16870117 29.69750977 C30.02788086 30.36169922 30.02788086 30.36169922 28.86401367 31.03930664 C27.36677583 31.90538129 25.85983207 32.75491227 24.34326172 33.58666992 C22.086468 34.82769662 22.086468 34.82769662 19.36791992 36.90454102 C15.63326476 37.94379067 14.87826098 37.40088214 11.50854492 35.68188477 C9.73529083 34.64848276 7.97642222 33.59008073 6.23120117 32.51000977 C4.47293112 31.45735282 2.71130999 30.41026874 0.94604492 29.36938477 C0.17252686 28.8946875 -0.60099121 28.41999023 -1.39794922 27.9309082 C-3.92538165 26.64888114 -5.87933436 25.99444507 -8.70629883 25.76000977 C-10.81507253 26.52512969 -10.81507253 26.52512969 -12.73754883 27.88500977 C-13.46586914 28.34391602 -14.19418945 28.80282227 -14.94458008 29.27563477 C-16.06413086 30.01040039 -16.06413086 30.01040039 -17.20629883 30.76000977 C-18.68709662 31.73186324 -20.17648463 32.6907817 -21.67504883 33.63500977 C-22.32924805 34.06555664 -22.98344727 34.49610352 -23.6574707 34.93969727 C-26.43213605 36.05062143 -27.87625766 35.65047235 -30.70629883 34.76000977 C-33.10986328 33.54492187 -33.10986328 33.54492187 -35.56958008 32.03735352 C-36.45581055 31.49916992 -37.34204102 30.96098633 -38.25512695 30.40649414 C-39.16713867 29.8425293 -40.07915039 29.27856445 -41.01879883 28.69750977 C-41.95014648 28.12967773 -42.88149414 27.5618457 -43.84106445 26.97680664 C-46.13360539 25.57776884 -48.42173636 24.17202496 -50.70629883 22.76000977 C-48.69420292 20.60725877 -46.80279913 19.10060419 -44.21411133 17.70141602 C-43.51898438 17.32090088 -42.82385742 16.94038574 -42.10766602 16.54833984 C-41.35646484 16.14381592 -40.60526367 15.73929199 -39.83129883 15.32250977 C-34.5161999 12.43774913 -29.24561995 9.51008432 -24.05786133 6.40063477 C-23.12441895 5.84690186 -22.19097656 5.29316895 -21.22924805 4.72265625 C-19.40796131 3.63883189 -17.59414973 2.54232674 -15.78881836 1.43212891 C-14.53367432 0.69144165 -14.53367432 0.69144165 -13.25317383 -0.06420898 C-12.519375 -0.50853271 -11.78557617 -0.95285645 -11.02954102 -1.41064453 C-6.97570356 -2.85777419 -3.80594765 -1.74383474 0 0 Z " fill="#6324FE" transform="translate(94.706298828125,39.239990234375)"/>
<path d="M0 0 C3.34533946 1.26202527 6.34696144 2.69351323 9.390625 4.56640625 C10.57785156 5.2944043 10.57785156 5.2944043 11.7890625 6.03710938 C12.60117187 6.54048828 13.41328125 7.04386719 14.25 7.5625 C15.07757813 8.06974609 15.90515625 8.57699219 16.7578125 9.09960938 C22.84948028 12.84948028 22.84948028 12.84948028 24 14 C23.97477273 15.60550868 23.89364735 17.21020273 23.7890625 18.8125 C22.945445 29.42008282 22.945445 29.42008282 26.51513672 38.96826172 C30.54623832 42.29848356 35.10904556 44.25196935 40 46 C39.67 46.99 39.34 47.98 39 49 C34.67834587 48.62420399 31.53167745 47.83063308 27.625 45.9375 C22.7659056 43.89038153 18.32852447 43.55793956 13.125 43.5 C12.38717285 43.48187256 11.6493457 43.46374512 10.88916016 43.44506836 C7.24640439 43.48554342 5.36139457 43.70728165 2.4921875 46.03125 C1.75355469 47.00578125 1.75355469 47.00578125 1 48 C-0.18695418 45.62609164 -0.12075833 44.19755049 -0.11352539 41.55029297 C-0.11344986 40.62948944 -0.11337433 39.70868591 -0.11329651 38.75997925 C-0.10813522 37.76410797 -0.10297394 36.76823669 -0.09765625 35.7421875 C-0.0962413 34.72399933 -0.09482635 33.70581116 -0.09336853 32.6567688 C-0.087759 29.39614965 -0.07520488 26.13559849 -0.0625 22.875 C-0.05748623 20.66796974 -0.05292311 18.46093841 -0.04882812 16.25390625 C-0.03778648 10.83591419 -0.02103905 5.41796195 0 0 Z " fill="#F4F4F4" transform="translate(43,66)"/>
<path d="M0 0 C3.28971722 1.83190861 6.57776221 3.66495594 9.85229492 5.52392578 C11.02057866 6.16906596 12.18919566 6.81360303 13.3581543 7.45751953 C14.45579102 8.07498047 15.55342773 8.69244141 16.68432617 9.32861328 C18.19023315 10.17528564 18.19023315 10.17528564 19.7265625 11.0390625 C22.03979492 12.64892578 22.03979492 12.64892578 23.03979492 15.64892578 C23.69979492 15.97892578 24.35979492 16.30892578 25.03979492 16.64892578 C25.69979492 16.97892578 26.35979492 17.30892578 27.03979492 17.64892578 C27.53479492 19.13392578 27.53479492 19.13392578 28.03979492 20.64892578 C27.01305664 20.21966797 27.01305664 20.21966797 25.96557617 19.78173828 C22.75618241 18.53911586 19.52069379 17.52192544 16.22729492 16.52392578 C15.06584961 16.17072266 13.9044043 15.81751953 12.70776367 15.45361328 C11.82733398 15.18806641 10.9469043 14.92251953 10.03979492 14.64892578 C10.03979492 13.98892578 10.03979492 13.32892578 10.03979492 12.64892578 C9.23541992 12.58705078 8.43104492 12.52517578 7.60229492 12.46142578 C3.53990555 11.53491593 0.7582404 9.85048953 -2.71411133 7.60986328 C-5.64247249 6.35703399 -6.94749169 6.68120572 -9.96020508 7.64892578 C-11.88094121 8.55631739 -13.77597111 9.51933692 -15.64770508 10.52392578 C-21.71860306 13.64181906 -28.02406299 16.64892578 -34.96020508 16.64892578 C-34.96020508 17.30892578 -34.96020508 17.96892578 -34.96020508 18.64892578 C-35.92958008 19.04080078 -36.89895508 19.43267578 -37.89770508 19.83642578 C-41.18196899 21.32487465 -41.18196899 21.32487465 -41.83520508 24.33642578 C-41.87645508 25.09955078 -41.91770508 25.86267578 -41.96020508 26.64892578 C-45.44560424 26.00348149 -47.98839564 24.54758181 -50.96020508 22.64892578 C-48.94810917 20.49617478 -47.05670538 18.9895202 -44.46801758 17.59033203 C-43.77289063 17.20981689 -43.07776367 16.82930176 -42.36157227 16.43725586 C-41.61037109 16.03273193 -40.85916992 15.62820801 -40.08520508 15.21142578 C-34.77010615 12.32666515 -29.4995262 9.39900034 -24.31176758 6.28955078 C-23.3783252 5.73581787 -22.44488281 5.18208496 -21.4831543 4.61157227 C-19.66186756 3.52774791 -17.84805598 2.43124275 -16.04272461 1.32104492 C-14.78758057 0.58035767 -14.78758057 0.58035767 -13.50708008 -0.17529297 C-12.77328125 -0.6196167 -12.03948242 -1.06394043 -11.28344727 -1.52172852 C-7.11338757 -3.01034692 -3.90856735 -1.78391849 0 0 Z " fill="#942FFE" transform="translate(94.960205078125,39.35107421875)"/>
<path d="M0 0 C2.97607422 1.39868164 2.97607422 1.39868164 6.0546875 3.16015625 C7.16328125 3.78857422 8.271875 4.41699219 9.4140625 5.06445312 C10.55617187 5.72380859 11.69828125 6.38316406 12.875 7.0625 C14.0516104 7.73325216 15.22868974 8.40318243 16.40625 9.07226562 C19.27554634 10.70682379 22.13980064 12.34959196 25 14 C25 14.33 25 14.66 25 15 C18.25 14.25 18.25 14.25 16 12 C14.31238142 11.39688385 12.59985524 10.86149763 10.875 10.375 C9.96492188 10.11460938 9.05484375 9.85421875 8.1171875 9.5859375 C7.41851562 9.39257812 6.71984375 9.19921875 6 9 C6 8.34 6 7.68 6 7 C4.35 7 2.7 7 1 7 C1.66 6.67 2.32 6.34 3 6 C3 5.34 3 4.68 3 4 C0.39533457 4.30872329 -2.20867691 4.62181723 -4.8125 4.9375 C-5.55048828 5.02451172 -6.28847656 5.11152344 -7.04882812 5.20117188 C-13.14516607 5.78515482 -13.14516607 5.78515482 -18.0625 9.0625 C-18.701875 9.701875 -19.34125 10.34125 -20 11 C-20.66 11 -21.32 11 -22 11 C-22.33 11.99 -22.66 12.98 -23 14 C-25.4597011 15.15353524 -27.83139569 16.13819769 -30.375 17.0625 C-35.88560544 19.11047844 -35.88560544 19.11047844 -41 22 C-40.67 23.98 -40.34 25.96 -40 28 C-43.42559084 26.79641403 -45.53258609 25.64107354 -48 23 C-44.56441154 20.95510429 -41.12617341 18.91470312 -37.6875 16.875 C-36.73037109 16.30523437 -35.77324219 15.73546875 -34.78710938 15.1484375 C-29.07457016 11.76322908 -23.31807678 8.49467138 -17.46533203 5.35766602 C-14.29395351 3.611178 -11.2270259 1.71999511 -8.16796875 -0.21484375 C-5.10970539 -1.32243102 -3.15775986 -0.72697656 0 0 Z " fill="#B84BF8" transform="translate(92,38)"/>
<path d="M0 0 C2.7734375 1.33984375 2.7734375 1.33984375 5.375 2.9375 C6.24898437 3.46214844 7.12296875 3.98679687 8.0234375 4.52734375 C8.67570312 5.01332031 9.32796875 5.49929687 10 6 C10 6.66 10 7.32 10 8 C9.01 8 8.02 8 7 8 C7 8.66 7 9.32 7 10 C6.154375 9.91621094 5.30875 9.83242187 4.4375 9.74609375 C-3.03761186 9.01551796 -3.03761186 9.01551796 -10.5 9.5 C-13.75392511 9.96484644 -15.86989721 9.88034141 -19 9 C-17.51462498 5.03612132 -15.40056993 3.69730831 -11.75 1.6875 C-10.81671875 1.15511719 -9.8834375 0.62273437 -8.921875 0.07421875 C-5.37408642 -1.23011529 -3.61192558 -1.03333304 0 0 Z " fill="#B6B6B6" transform="translate(117,105)"/>
<path d="M0 0 C0.99 0.495 0.99 0.495 2 1 C2 14.86 2 28.72 2 43 C3.98 41.68 5.96 40.36 8 39 C13.56557552 37.76644312 18.76222657 39.32820408 23.98046875 41.265625 C26.28723933 42.10445067 28.57878085 42.60948078 31 43 C31.33 42.34 31.66 41.68 32 41 C34.64 42.65 37.28 44.3 40 46 C39.67 46.99 39.34 47.98 39 49 C34.67834587 48.62420399 31.53167745 47.83063308 27.625 45.9375 C22.7659056 43.89038153 18.32852447 43.55793956 13.125 43.5 C12.38717285 43.48187256 11.6493457 43.46374512 10.88916016 43.44506836 C7.24640439 43.48554342 5.36139457 43.70728165 2.4921875 46.03125 C1.75355469 47.00578125 1.75355469 47.00578125 1 48 C-0.18695418 45.62609164 -0.12075833 44.19755049 -0.11352539 41.55029297 C-0.11344986 40.62948944 -0.11337433 39.70868591 -0.11329651 38.75997925 C-0.10813522 37.76410797 -0.10297394 36.76823669 -0.09765625 35.7421875 C-0.0962413 34.72399933 -0.09482635 33.70581116 -0.09336853 32.6567688 C-0.087759 29.39614965 -0.07520488 26.13559849 -0.0625 22.875 C-0.05748623 20.66796974 -0.05292311 18.46093841 -0.04882812 16.25390625 C-0.03778648 10.83591419 -0.02103905 5.41796195 0 0 Z " fill="#D0D0D0" transform="translate(43,66)"/>
<path d="M0 0 C4.00375642 1.4856239 7.61421847 3.36863385 11.3125 5.5 C12.91544922 6.41265625 12.91544922 6.41265625 14.55078125 7.34375 C15.76314453 8.16359375 15.76314453 8.16359375 17 9 C17 9.66 17 10.32 17 11 C15.53466797 12.09741211 15.53466797 12.09741211 13.4921875 13.27734375 C12.75226563 13.70853516 12.01234375 14.13972656 11.25 14.58398438 C10.46625 15.03064453 9.6825 15.47730469 8.875 15.9375 C8.11445312 16.38029297 7.35390625 16.82308594 6.5703125 17.27929688 C5.07307466 18.14537152 3.5661309 18.99490251 2.04956055 19.82666016 C-0.20723317 21.06768685 -0.20723317 21.06768685 -2.92578125 23.14453125 C-6.66043641 24.18378091 -7.41544019 23.64087238 -10.78515625 21.921875 C-12.55841034 20.88847299 -14.31727895 19.83007096 -16.0625 18.75 C-17.82077005 17.69734306 -19.58239118 16.65025898 -21.34765625 15.609375 C-22.12117432 15.13467773 -22.89469238 14.65998047 -23.69165039 14.17089844 C-26.17759292 12.90991691 -28.23552344 12.32260244 -31 12 C-33.75256244 12.84979475 -33.75256244 12.84979475 -36 14 C-35.34 12.68 -34.68 11.36 -34 10 C-32.58344207 9.9727585 -31.16672955 9.95349533 -29.75 9.9375 C-28.56664063 9.92009766 -28.56664063 9.92009766 -27.359375 9.90234375 C-25.09308998 9.99614694 -23.1711105 10.36758937 -21 11 C-21 11.99 -21 12.98 -21 14 C-20.0925 14.12375 -19.185 14.2475 -18.25 14.375 C-15.39003836 14.92499262 -13.44010282 15.46363897 -11 17 C-10.67 17.66 -10.34 18.32 -10 19 C-2.6442203 20.00306087 2.6942879 16.47901358 9 13 C8.29192408 8.6728694 7.42686094 6.83939907 4 4 C1.86690808 2.76487921 1.86690808 2.76487921 0 2 C0 1.34 0 0.68 0 0 Z " fill="#6743E6" transform="translate(117,53)"/>
<path d="M0 0 C0 0.66 0 1.32 0 2 C-0.99 2.33 -1.98 2.66 -3 3 C-3.680625 3.680625 -4.36125 4.36125 -5.0625 5.0625 C-5.701875 5.701875 -6.34125 6.34125 -7 7 C-7.66 7 -8.32 7 -9 7 C-9.33 7.99 -9.66 8.98 -10 10 C-12.4597011 11.15353524 -14.83139569 12.13819769 -17.375 13.0625 C-22.88560544 15.11047844 -22.88560544 15.11047844 -28 18 C-27.67 19.98 -27.34 21.96 -27 24 C-30.42559084 22.79641403 -32.53258609 21.64107354 -35 19 C-31.56441154 16.95510429 -28.12617341 14.91470312 -24.6875 12.875 C-23.73037109 12.30523437 -22.77324219 11.73546875 -21.78710938 11.1484375 C-2.97412109 0 -2.97412109 0 0 0 Z " fill="#9846F2" transform="translate(79,42)"/>
<path d="M0 0 C0.66 0.33 1.32 0.66 2 1 C2 1.66 2 2.32 2 3 C3.65 3 5.3 3 7 3 C7 3.66 7 4.32 7 5 C-1.94192588 8.25866279 -10.9635102 9.90767126 -20 6 C-20 5.34 -20 4.68 -20 4 C-16.6875 2.875 -16.6875 2.875 -13 2 C-12.01 2.66 -11.02 3.32 -10 4 C-6.85385897 3.75162044 -5.02664492 3.01611088 -2.3125 1.375 C-1.549375 0.92125 -0.78625 0.4675 0 0 Z " fill="#A7A7A7" transform="translate(98,111)"/>
<path d="M0 0 C0.33 0.66 0.66 1.32 1 2 C2.64991582 2.70710678 4.3207762 3.36562656 6 4 C6.886875 4.556875 7.77375 5.11375 8.6875 5.6875 C13.25531823 7.49739024 17.24984649 7.08738454 22 6 C22.99 5.34 23.98 4.68 25 4 C25.99 4.33 26.98 4.66 28 5 C26.11542462 6.20528665 24.21682415 7.38866449 22.3125 8.5625 C21.25675781 9.22378906 20.20101562 9.88507813 19.11328125 10.56640625 C16 12 16 12 13.5 11.9375 C10.33204293 10.7495161 7.58260702 9.18728996 4.6875 7.4375 C3.61886719 6.79683594 2.55023438 6.15617187 1.44921875 5.49609375 C0.64097656 5.00238281 -0.16726562 4.50867188 -1 4 C-0.67 2.68 -0.34 1.36 0 0 Z " fill="#5F40EC" transform="translate(53,63)"/>
<path d="M0 0 C4.00375642 1.4856239 7.61421847 3.36863385 11.3125 5.5 C12.38113281 6.1084375 13.44976562 6.716875 14.55078125 7.34375 C15.76314453 8.16359375 15.76314453 8.16359375 17 9 C17 9.66 17 10.32 17 11 C14.6875 12.6875 14.6875 12.6875 12 14 C11.01 13.67 10.02 13.34 9 13 C8.87625 11.88625 8.87625 11.88625 8.75 10.75 C7.83903627 7.40979966 6.64363853 6.19044335 4 4 C1.86690808 2.76487921 1.86690808 2.76487921 0 2 C0 1.34 0 0.68 0 0 Z " fill="#7B49F4" transform="translate(117,53)"/>
<path d="M0 0 C0.99 0.66 1.98 1.32 3 2 C2.67 2.99 2.34 3.98 2 5 C-2.62 5 -7.24 5 -12 5 C-6.78200692 -1.52249135 -6.78200692 -1.52249135 0 0 Z " fill="#CECECE" transform="translate(117,105)"/>
<path d="M0 0 C2.97 1.65 5.94 3.3 9 5 C8.67 5.99 8.34 6.98 8 8 C2.72250715 7.46148032 -1.25645564 6.22656164 -6 4 C-5.67 3.01 -5.34 2.02 -5 1 C-3.35 1.33 -1.7 1.66 0 2 C0 1.34 0 0.68 0 0 Z " fill="#C3C3C3" transform="translate(74,107)"/>
<path d="M0 0 C4.91441412 1.43652105 9.00238358 3.54159615 13.375 6.125 C14.01566406 6.49753906 14.65632813 6.87007812 15.31640625 7.25390625 C16.88048477 8.16434002 18.44065534 9.08148191 20 10 C20 10.33 20 10.66 20 11 C13.25 10.25 13.25 10.25 11 8 C9.31238142 7.39688385 7.59985524 6.86149763 5.875 6.375 C4.50988281 5.98441406 4.50988281 5.98441406 3.1171875 5.5859375 C2.41851562 5.39257812 1.71984375 5.19921875 1 5 C1 4.34 1 3.68 1 3 C-0.65 3 -2.3 3 -4 3 C-2.68 2.67 -1.36 2.34 0 2 C0 1.34 0 0.68 0 0 Z " fill="#A948F4" transform="translate(97,42)"/>
<path d="M0 0 C0.66 0.33 1.32 0.66 2 1 C1.67 1.33 1.34 1.66 1 2 C1.89203125 2 2.7840625 2 3.703125 2 C8.46875 2 13.234375 2 18 2 C18 2.99 18 3.98 18 5 C17.18917969 4.98839844 16.37835938 4.97679688 15.54296875 4.96484375 C8.29433826 4.90577458 1.20367799 5.19157121 -6 6 C-5 3 -5 3 -2.5625 1.25 C-1.716875 0.8375 -0.87125 0.425 0 0 Z " fill="#C2C2C2" transform="translate(105,107)"/>
<path d="M0 0 C-1.80580732 4.47152289 -4.4667855 5.83952485 -8.6015625 8.02734375 C-11.97877528 9.39693004 -14.40370042 9.38258506 -18 9 C-18.33 8.01 -18.66 7.02 -19 6 C-19.66 5.67 -20.32 5.34 -21 5 C-19.72125 5.28875 -18.4425 5.5775 -17.125 5.875 C-11.62893241 6.54567703 -8.4942817 4.38965519 -4.06640625 1.34765625 C-2 0 -2 0 0 0 Z " fill="#5532FE" transform="translate(125,64)"/>
<path d="M0 0 C0.57105469 0.21527344 1.14210938 0.43054688 1.73046875 0.65234375 C0.00477236 1.78265978 -1.72524864 2.90637482 -3.45703125 4.02734375 C-4.41996094 4.65382813 -5.38289063 5.2803125 -6.375 5.92578125 C-9.0116705 7.49853207 -11.31349199 8.82465276 -14.26953125 9.65234375 C-17.58203125 7.77734375 -17.58203125 7.77734375 -20.26953125 5.65234375 C-18.26953125 4.65234375 -18.26953125 4.65234375 -15.20703125 4.90234375 C-10.56712033 4.60774623 -8.19992074 3.15023668 -4.3828125 0.6484375 C-2.26953125 -0.34765625 -2.26953125 -0.34765625 0 0 Z " fill="#634CEB" transform="translate(125.26953125,67.34765625)"/>
<path d="M0 0 C0.66 0.33 1.32 0.66 2 1 C2 1.66 2 2.32 2 3 C3.65 3 5.3 3 7 3 C7 3.66 7 4.32 7 5 C-4.52164009 7.29612756 -4.52164009 7.29612756 -10 7 C-6.81404865 4.36021174 -3.69029454 1.89501612 0 0 Z " fill="#ADADAD" transform="translate(98,111)"/>
<path d="M0 0 C0.66 0.33 1.32 0.66 2 1 C-1.66575222 4.99900242 -5.08927402 7.63557638 -10 10 C-10.99 9.67 -11.98 9.34 -13 9 C-9.25173604 4.96340804 -5.26761927 1.75587309 0 0 Z " fill="#A2A2A2" transform="translate(117,124)"/>
<path d="M0 0 C-2.64738916 1.4606285 -3.89448334 2 -7 2 C-7 2.66 -7 3.32 -7 4 C-8.4540625 4.5878125 -8.4540625 4.5878125 -9.9375 5.1875 C-13.22176391 6.67594887 -13.22176391 6.67594887 -13.875 9.6875 C-13.91625 10.450625 -13.9575 11.21375 -14 12 C-14.99 11.34 -15.98 10.68 -17 10 C-16.86328125 7.7109375 -16.86328125 7.7109375 -16 5 C-13.41796875 3.1640625 -13.41796875 3.1640625 -10.1875 1.625 C-9.12917969 1.10164063 -8.07085937 0.57828125 -6.98046875 0.0390625 C-3.9909469 -1.00315613 -2.86841002 -1.18070146 0 0 Z " fill="#8438FE" transform="translate(67,54)"/>
<path d="M0 0 C0 0.66 0 1.32 0 2 C-1.19625 1.95875 -2.3925 1.9175 -3.625 1.875 C-7.46400922 1.875 -10.39365356 2.61884604 -14 4 C-16.32514617 4.69801548 -18.66210594 5.34538966 -21 6 C-19.53428864 2.24411464 -19.53428864 2.24411464 -17.1875 1.171875 C-11.40428814 0.05654128 -5.88447558 -0.22112852 0 0 Z " fill="#AD3DFE" transform="translate(95,42)"/>
<path d="M0 0 C-5.06004432 4.00586842 -8.72390524 5.64017947 -15 7 C-15.99 7.66 -16.98 8.32 -18 9 C-17.3125 7.0625 -17.3125 7.0625 -16 5 C-13.375 4.25 -13.375 4.25 -11 4 C-11 3.34 -11 2.68 -11 2 C-9.54494642 1.47007308 -8.08581873 0.9513211 -6.625 0.4375 C-5.40683594 0.00244141 -5.40683594 0.00244141 -4.1640625 -0.44140625 C-2 -1 -2 -1 0 0 Z " fill="#7228FE" transform="translate(71,54)"/>
<path d="M0 0 C0.66 0.33 1.32 0.66 2 1 C-2.27548441 5.7641112 -2.27548441 5.7641112 -5.6875 6.875 C-8 7 -8 7 -10 6 C-10 4.68 -10 3.36 -10 2 C-8.72125 1.855625 -7.4425 1.71125 -6.125 1.5625 C-3.74307106 1.29357254 -2.15547309 1.07773654 0 0 Z " fill="#A3A3A3" transform="translate(96,136)"/>
<path d="M0 0 C5.15158199 0.5151582 9.7893353 1.945007 14 5 C15 7.75 15 7.75 15 10 C14.01 10 13.02 10 12 10 C12.33 8.68 12.66 7.36 13 6 C11.1746875 5.566875 11.1746875 5.566875 9.3125 5.125 C6.08185352 4.32164208 3.05679065 3.33734591 0 2 C0 1.34 0 0.68 0 0 Z " fill="#6E2EFE" transform="translate(112,56)"/>
<path d="M0 0 C0 0.99 0 1.98 0 3 C0.31421071 5.00309329 0.6451046 7.00371336 1 9 C-2.37503669 7.8141763 -4.64722731 6.72426311 -7 4 C-4.69 2.68 -2.38 1.36 0 0 Z " fill="#7F54DE" transform="translate(51,57)"/>
<path d="M0 0 C2.3431213 0.25561323 4.67843403 0.59270772 7 1 C7.33 1.66 7.66 2.32 8 3 C8.66 3.309375 9.32 3.61875 10 3.9375 C12 5 12 5 13 8 C9.9168649 6.80100302 6.93720508 5.52299523 4 4 C4 3.34 4 2.68 4 2 C2.68 1.67 1.36 1.34 0 1 C0 0.67 0 0.34 0 0 Z " fill="#883BFD" transform="translate(110,52)"/>
<path d="M0 0 C0 0.66 0 1.32 0 2 C-0.99 2.33 -1.98 2.66 -3 3 C-3.598125 3.680625 -4.19625 4.36125 -4.8125 5.0625 C-7 7 -7 7 -10.25 7.25 C-11.1575 7.1675 -12.065 7.085 -13 7 C-4.25 0 -4.25 0 0 0 Z " fill="#9F4BE1" transform="translate(79,42)"/>
<path d="M0 0 C0 0.99 0 1.98 0 3 C-1.45706726 3.50367757 -2.91570096 4.00282556 -4.375 4.5 C-5.59316406 4.91765625 -5.59316406 4.91765625 -6.8359375 5.34375 C-9 6 -9 6 -11 6 C-11 5.34 -11 4.68 -11 4 C-7.37 2.68 -3.74 1.36 0 0 Z " fill="#892CFE" transform="translate(78,48)"/>
<path d="M0 0 C0.66 0.33 1.32 0.66 2 1 C1.67 1.33 1.34 1.66 1 2 C1.99 2.66 2.98 3.32 4 4 C0.7 4.66 -2.6 5.32 -6 6 C-5 3 -5 3 -2.5625 1.25 C-1.716875 0.8375 -0.87125 0.425 0 0 Z " fill="#BCBCBC" transform="translate(105,107)"/>
<path d="M0 0 C0.66 0.33 1.32 0.66 2 1 C1.01 1 0.02 1 -1 1 C-0.67 0.67 -0.34 0.34 0 0 Z M-3 2 C-2.34 2.33 -1.68 2.66 -1 3 C-5.42778844 5.74522883 -8.71862571 7.48474397 -14 8 C-11.88613536 5.88613536 -10.20732397 5.02991678 -7.5 3.8125 C-6.7059375 3.44769531 -5.911875 3.08289063 -5.09375 2.70703125 C-4.4028125 2.47371094 -3.711875 2.24039063 -3 2 Z " fill="#552BFE" transform="translate(79,63)"/>
<path d="M0 0 C1.62752231 0.25523874 3.25203196 0.52974494 4.875 0.8125 C6.23238281 1.03873047 6.23238281 1.03873047 7.6171875 1.26953125 C10 2 10 2 12 5 C8.53058454 4.54177532 5.32604951 4.10868317 2 3 C2 2.34 2 1.68 2 1 C1.34 0.67 0.68 0.34 0 0 Z " fill="#9837FE" transform="translate(98,47)"/>
<path d="M0 0 C2.9375 0.8125 2.9375 0.8125 6 2 C6.33 2.99 6.66 3.98 7 5 C5.35 5.33 3.7 5.66 2 6 C1.34 4.02 0.68 2.04 0 0 Z " fill="#8B5FF1" transform="translate(127,59)"/>
<path d="M0 0 C2.9375 0.8125 2.9375 0.8125 4.9375 2.8125 C1.94218461 3.81093846 0.76494268 3.81982761 -2.25 3.375 C-3.508125 3.189375 -4.76625 3.00375 -6.0625 2.8125 C-4.08959835 0.07235882 -3.46862789 -0.21236497 0 0 Z " fill="#B957E7" transform="translate(89.0625,37.1875)"/>
<path d="M0 0 C-1 2 -1 2 -2.84765625 2.6328125 C-3.57855469 2.79523438 -4.30945313 2.95765625 -5.0625 3.125 C-5.79597656 3.29257813 -6.52945313 3.46015625 -7.28515625 3.6328125 C-7.85105469 3.75398438 -8.41695313 3.87515625 -9 4 C-9.33 3.01 -9.66 2.02 -10 1 C-8.71073008 0.63720544 -7.41846728 0.28503302 -6.125 -0.0625 C-5.40570313 -0.25972656 -4.68640625 -0.45695312 -3.9453125 -0.66015625 C-2 -1 -2 -1 0 0 Z " fill="#5B40FC" transform="translate(73,70)"/>
<path d="M0 0 C3.3 1.65 6.6 3.3 10 5 C10 5.33 10 5.66 10 6 C3.52443609 5.38909774 3.52443609 5.38909774 1.0625 3.5625 C0 2 0 2 0 0 Z " fill="#984BE9" transform="translate(107,47)"/>
<path d="M0 0 C1.98 0.495 1.98 0.495 4 1 C3.34 2.98 2.68 4.96 2 7 C1.01 6.34 0.02 5.68 -1 5 C-0.67 3.35 -0.34 1.7 0 0 Z " fill="#7A41FE" transform="translate(51,59)"/>
<path d="M0 0 C0.33 0.99 0.66 1.98 1 3 C-1.97 4.32 -4.94 5.64 -8 7 C-5.73826764 2.47653527 -4.46594067 1.94171334 0 0 Z " fill="#8F4CEC" transform="translate(60,52)"/>
<path d="M0 0 C3.7910119 1.44950455 7.3874638 3.15172566 11 5 C9.4375 5.75 9.4375 5.75 7 6 C4.49713591 4.86915563 2.32992278 3.47860484 0 2 C0 1.34 0 0.68 0 0 Z " fill="#894CE5" transform="translate(117,53)"/>
<path d="M0 0 C2.97 0 5.94 0 9 0 C8.67 0.99 8.34 1.98 8 3 C5.6568787 2.74438677 3.32156597 2.40729228 1 2 C0.67 1.34 0.34 0.68 0 0 Z " fill="#B7B7B7" transform="translate(74,112)"/>
</svg>
